<svg width="87" height="86" viewBox="0 0 87 86" fill="none" xmlns="http://www.w3.org/2000/svg">
<path d="M50.8742 66.1694C43.9726 63.606 36.8739 63.2117 30.3667 64.9864C25.8314 66.1695 21.4933 68.5357 17.5495 71.4935L14.7889 73.8598L14.0001 74.6485L15.7748 76.226C15.972 76.226 15.972 76.4232 16.1692 76.6204C16.5636 77.0148 16.958 77.212 17.5495 77.6063L18.7326 78.3951L19.9157 77.4091C20.1129 77.212 20.5073 76.8176 20.9017 76.6204C24.4511 73.6626 28.3948 71.6907 32.5357 70.7048C37.8598 69.3245 43.5782 69.5217 49.2966 71.6907C54.0291 73.4654 63.6914 75.6345 75.3254 70.7048L75.7198 70.5076L76.3113 69.916C76.3113 69.7189 76.5086 69.7188 76.7057 69.5216C77.6917 68.3385 78.6776 67.1554 79.4664 65.7751L83.4101 59.6623L77.1001 63.2116C67.8323 68.3385 59.3532 69.3244 50.8742 66.1694Z" fill="#55B02E"/>
<path d="M23.8595 44.8733C29.1836 43.493 34.902 43.6901 40.6205 45.8592C46.9305 48.2255 63.0998 51.5777 81.2411 35.2111L84.1989 32.2533L84.3961 32.0561L85.1848 31.2674L84.7904 30.2814C84.5932 29.4927 84.1989 28.5067 83.8045 27.5208L82.8186 24.7601L80.8467 26.732C80.6495 27.1264 80.2551 27.3236 79.8607 27.7179C71.1845 36.5914 57.7757 45.662 42.3951 40.1408C35.4936 37.5773 28.3948 37.183 21.8877 38.9576C15.5777 40.7323 10.0564 44.0845 4.92953 48.817V48.6198L1.97172 51.7748C1.97172 51.972 1.77456 51.972 1.57738 52.1692L0.985779 52.7608L1.18298 53.5495C1.38017 54.5354 1.77453 55.5214 1.97172 56.5073L3.15485 59.6623L5.12673 57.0989C5.32391 56.7045 5.71828 56.5073 5.91546 56.113C10.0564 52.3664 15.7748 47.0423 23.8595 44.8733Z" fill="#55B02E"/>
<path d="M4.73255 41.3239C9.26786 36.5914 14.3947 33.6336 19.9159 32.0561C25.24 30.6757 30.9584 30.8729 36.6769 33.042C54.4237 39.5492 69.8044 28.9011 76.5087 23.1826L79.0722 20.6192L80.0581 19.8304L79.2694 18.6473C78.6778 18.0558 78.2834 17.267 77.6919 16.4783L76.5087 14.9007L75.1284 16.2811C74.9312 16.4782 74.5369 16.8726 74.3397 17.0698C66.0578 24.9573 53.2406 33.042 38.6487 27.5208C31.7472 24.9573 24.6484 24.5629 18.1413 26.3376C14.0003 27.5208 10.0566 29.4926 6.11282 32.0561L1.97187 35.4083C1.5775 35.8026 1.38031 35.9998 0.985937 36.3942L0.591598 36.7885V37.3801C0.394411 38.7604 0.394387 40.1408 0.197199 41.3239L0 46.2536L3.35221 42.7042C3.74658 42.3098 4.14098 41.7183 4.73255 41.3239Z" fill="#55B02E"/>
<path d="M56.5929 79.5782L56.1985 80.7614L56.5929 79.5782C56.0013 79.3811 55.607 79.1838 55.0154 78.9866C48.1138 76.4232 41.015 76.0289 34.5079 77.8036C33.1276 78.1979 31.7473 78.5923 30.367 79.1838L25.6344 81.3529L24.4514 81.9445L28.3951 83.3248C29.5782 83.7192 30.7613 84.1136 31.9445 84.5079L32.536 84.7051L33.1276 84.5079C33.7192 84.3107 34.3107 83.9163 34.9023 83.9163C35.2966 83.9163 35.691 83.7192 36.0854 83.522C40.8179 82.3389 45.9447 82.3388 51.466 84.1135C52.0576 84.3107 52.452 84.5079 53.0435 84.7051L54.0295 85.0995L54.621 84.9023C56.0013 84.5079 57.5788 84.1136 58.762 83.522L64.2832 81.5501L58.5648 80.1698C57.9732 79.9726 57.1844 79.7754 56.5929 79.5782Z" fill="#55B02E"/>
<path d="M86.7624 38.7605L83.8046 41.7183C83.4103 42.1126 83.0159 42.507 82.6216 42.9014C74.5369 50.5917 61.5225 58.8736 46.9306 53.3523C40.0291 50.7889 32.9303 50.3945 26.4231 52.1692C20.3103 53.9439 14.789 57.0989 9.85935 61.8314L7.29594 64.592L6.5072 65.578L7.29594 66.7611C7.8875 67.5498 8.2819 68.1414 8.67628 68.9302L9.85935 70.7048L11.2397 68.9302C11.4369 68.733 11.8312 68.3386 12.0284 68.1414C16.7609 63.0145 21.8878 59.8595 27.8034 58.282C33.1275 56.9017 38.8459 57.0989 44.5643 59.2679C49.494 61.0426 54.6209 61.6342 59.7478 61.0427C68.8184 60.0567 77.8891 54.9299 84.5934 49.2114C84.9878 48.817 85.3821 48.6199 85.7765 48.2255L86.3681 47.6339V47.0423C86.3681 45.8592 86.5653 44.4789 86.5653 43.2958L86.7624 38.7605Z" fill="#55B02E"/>
<path d="M11.8311 20.6193L11.2396 19.4362L11.8311 20.6193C13.0143 20.0277 14.3946 19.6333 15.5778 19.239C20.9018 17.8586 26.6202 18.0558 32.3387 20.2249C36.0852 21.6052 39.8318 22.1968 43.9727 22.1968C52.2546 22.1968 60.5364 19.239 68.2268 13.5205L71.1846 11.1543L72.1705 10.3655L70.3958 8.98519C69.8043 8.39362 69.0155 7.80209 68.2268 7.40771L67.0436 6.61897L66.0577 7.40771C65.6633 7.6049 65.4661 7.99926 65.0717 8.19645C54.6208 16.0839 44.1699 18.253 34.3106 14.5065C27.2118 11.943 20.113 11.3515 13.0143 13.5205C12.4227 13.7177 11.8312 13.9149 11.0424 14.1121L10.6481 14.3093L10.0565 14.9008C10.0565 15.098 9.85932 15.098 9.66213 15.2952C8.87338 16.4783 7.88741 17.4643 7.09866 18.6474L3.35211 24.3658L9.46493 21.2108C10.4509 21.2108 11.2396 20.8165 11.8311 20.6193Z" fill="#55B02E"/>
<path d="M28.0006 7.21047L28.5921 7.40767C31.1555 8.39361 35.0993 9.37955 40.029 9.37955C45.1559 9.37955 50.0856 8.19641 55.0153 6.22454L61.128 3.26673L56.9871 1.88645C55.804 1.49207 54.6208 1.0977 53.2405 0.900513H52.649L52.0575 1.09765C51.4659 1.29484 50.8743 1.68926 50.2827 1.88645C44.3671 4.05551 38.4515 4.44989 32.7331 2.87239C32.1415 2.6752 31.5499 2.47798 30.9584 2.28079L30.3668 2.08359L29.7752 2.28079C28.5921 2.67516 27.409 3.06956 26.2259 3.66112L21.6906 5.633L26.4231 7.01327C26.8175 6.81609 27.409 7.01329 28.0006 7.21047Z" fill="#55B02E"/>
</svg>
